<svg width="45" height="49" viewBox="0 0 45 49" fill="none" xmlns="http://www.w3.org/2000/svg">
<mask id="mask0_529_31" style="mask-type:alpha" maskUnits="userSpaceOnUse" x="0" y="0" width="45" height="49">
<path d="M1.354 36.1496V12.7072C1.354 12.0436 1.72795 11.4367 2.32064 11.1383L21.0049 1.73151C21.0049 1.73151 21.5538 1.36648 22.5053 1.35428C23.2034 1.34533 23.6843 1.5526 23.8909 1.66362C23.9689 1.70552 24.0445 1.75152 24.1235 1.79135L42.6781 11.1382C43.2706 11.4367 43.6444 12.0435 43.6444 12.7069V36.1335C43.6444 36.7974 43.2701 37.4045 42.677 37.7028L23.7129 47.2397C23.7129 47.2397 23.0176 47.5602 22.4809 47.5602C21.9442 47.5602 21.1025 47.2397 21.1025 47.2397L2.3163 37.7163C1.726 37.4171 1.354 36.8114 1.354 36.1496Z" fill="white" stroke="#58BA5F" stroke-width="2.70795"/>
</mask>
<g mask="url(#mask0_529_31)">
<path d="M22.4692 47.5601V23.9449L23.1889 23.7253L24.0428 23.4448L41.5956 14.5036L43.1448 13.6742L43.5839 13.3326V36.0331L43.5229 36.6674L43.3034 37.1797L43.0106 37.509L23.4817 47.3894L22.7986 47.5845L22.4692 47.5601Z" fill="#58BA5F"/>
<path d="M1.69623 13.5766L1.34249 13.1497L1.2937 36.0452L1.45227 36.8625L1.85481 37.4968L20.2127 46.8038L21.2862 47.3528L22.4694 47.5235V23.9083L22.4572 23.8717L22.0668 23.7741L21.6155 23.6399L21.03 23.3959L2.92823 14.3573L2.09877 13.9547L1.69623 13.5766Z" fill="#58BA5F"/>
<path d="M1.35468 12.3202L1.28149 13.0277L2.00117 13.8816L20.5055 23.1886L21.5301 23.7131L22.6767 23.8839L24.0063 23.4204L42.7302 13.9426L43.4987 13.2107L43.6328 12.4178L43.3889 11.7957L42.7302 11.198L23.9575 1.708L23.2378 1.40305L22.1766 1.36646L21.3106 1.54942L3.34295 10.6613L2.34272 11.1248L1.59864 11.7103L1.35468 12.3202Z" fill="#58BA5F"/>
<path d="M37.0784 -0.305176L6.14014 15.5441L13.2631 19.2606L44.4177 3.42798L37.0784 -0.305176Z" fill="white" stroke="white" stroke-width="0.268355"/>
<path d="M14.2478 35.5327V19.3604L6.36792 15.3085V31.694L14.2478 35.5327Z" fill="white"/>
<path d="M1.354 36.1496V12.7072C1.354 12.0436 1.72795 11.4367 2.32064 11.1383L21.0049 1.73151C21.0049 1.73151 21.5538 1.36648 22.5053 1.35428C23.2034 1.34533 23.6843 1.5526 23.8909 1.66362C23.9689 1.70552 24.0445 1.75152 24.1235 1.79135L42.6781 11.1382C43.2706 11.4367 43.6444 12.0435 43.6444 12.7069V36.1335C43.6444 36.7974 43.2701 37.4045 42.677 37.7028L23.7129 47.2397C23.7129 47.2397 23.0176 47.5602 22.4809 47.5602C21.9442 47.5602 21.1025 47.2397 21.1025 47.2397L2.3163 37.7163C1.726 37.4171 1.354 36.8114 1.354 36.1496Z" stroke="#58BA5F" stroke-width="2.70795"/>
<path d="M-0.69458 12.2224L21.0666 23.4448L21.9148 23.7493C22.2896 23.8839 22.699 23.887 23.0759 23.7584L23.8658 23.4886C23.9512 23.4595 24.0342 23.4238 24.1141 23.3819L45.3893 12.2224" stroke="white" stroke-width="2.90312"/>
</g>
</svg>
