<svg width="203" height="53" viewBox="0 0 203 53" fill="none" xmlns="http://www.w3.org/2000/svg">
<path d="M49.1997 33.138C47.9188 33.138 46.7718 32.8895 45.7585 32.3925C44.7644 31.8954 43.9902 31.1403 43.4358 30.127C42.8813 29.0947 42.6041 27.7851 42.6041 26.1984V17.4808H47.0776V25.5388C47.0776 26.8197 47.3453 27.766 47.8806 28.3778C48.435 28.9704 49.2092 29.2668 50.2033 29.2668C50.8916 29.2668 51.5033 29.1234 52.0386 28.8366C52.5739 28.5307 52.9945 28.0719 53.3004 27.4602C53.6063 26.8293 53.7592 26.0455 53.7592 25.1087V17.4808H58.2327V32.9086H53.9886V28.6646L54.7629 29.8976C54.2467 30.9682 53.482 31.7807 52.4688 32.3351C51.4747 32.8704 50.385 33.138 49.1997 33.138ZM71.4961 33.138C70.1388 33.138 68.9726 32.8513 67.9976 32.2778C67.0226 31.7042 66.277 30.8344 65.7609 29.6682C65.2447 28.4829 64.9866 26.9918 64.9866 25.1947C64.9866 23.3786 65.2542 21.8874 65.7895 20.7212C66.3439 19.5551 67.1086 18.6852 68.0836 18.1117C69.0586 17.5382 70.1961 17.2514 71.4961 17.2514C72.949 17.2514 74.249 17.5764 75.3961 18.2264C76.5622 18.8764 77.4799 19.794 78.149 20.9793C78.8372 22.1646 79.1813 23.5697 79.1813 25.1947C79.1813 26.8006 78.8372 28.1962 78.149 29.3815C77.4799 30.5667 76.5622 31.4939 75.3961 32.163C74.249 32.813 72.949 33.138 71.4961 33.138ZM62.3771 32.9086V11.6309H66.8505V20.6065L66.5638 25.1661L66.6498 29.7542V32.9086H62.3771ZM70.7218 29.4675C71.4674 29.4675 72.127 29.2954 72.7005 28.9513C73.2931 28.6072 73.7615 28.1197 74.1056 27.4888C74.4689 26.8388 74.6505 26.0741 74.6505 25.1947C74.6505 24.2962 74.4689 23.5315 74.1056 22.9006C73.7615 22.2698 73.2931 21.7823 72.7005 21.4381C72.127 21.094 71.4674 20.922 70.7218 20.922C69.9763 20.922 69.3071 21.094 68.7145 21.4381C68.1219 21.7823 67.6535 22.2698 67.3094 22.9006C66.9653 23.5315 66.7932 24.2962 66.7932 25.1947C66.7932 26.0741 66.9653 26.8388 67.3094 27.4888C67.6535 28.1197 68.1219 28.6072 68.7145 28.9513C69.3071 29.2954 69.9763 29.4675 70.7218 29.4675Z" fill="#58BA5F"/>
<path d="M88.8002 33.138C87.3472 33.138 86.0377 32.813 84.8715 32.163C83.7054 31.4939 82.7782 30.5667 82.0899 29.3815C81.4208 28.1962 81.0863 26.8006 81.0863 25.1947C81.0863 23.5697 81.4208 22.1646 82.0899 20.9793C82.7782 19.794 83.7054 18.8764 84.8715 18.2264C86.0377 17.5764 87.3472 17.2514 88.8002 17.2514C90.1002 17.2514 91.2376 17.5382 92.2126 18.1117C93.1876 18.6852 93.9428 19.5551 94.4781 20.7212C95.0133 21.8874 95.281 23.3786 95.281 25.1947C95.281 26.9918 95.0229 28.4829 94.5067 29.6682C93.9906 30.8344 93.245 31.7042 92.27 32.2778C91.3141 32.8513 90.1575 33.138 88.8002 33.138ZM89.5744 29.4675C90.3009 29.4675 90.9604 29.2954 91.5531 28.9513C92.1457 28.6072 92.6141 28.1197 92.9582 27.4888C93.3214 26.8388 93.5031 26.0741 93.5031 25.1947C93.5031 24.2962 93.3214 23.5315 92.9582 22.9006C92.6141 22.2698 92.1457 21.7823 91.5531 21.4381C90.9604 21.094 90.3009 20.922 89.5744 20.922C88.8288 20.922 88.1597 21.094 87.5671 21.4381C86.9744 21.7823 86.4965 22.2698 86.1333 22.9006C85.7892 23.5315 85.6171 24.2962 85.6171 25.1947C85.6171 26.0741 85.7892 26.8388 86.1333 27.4888C86.4965 28.1197 86.9744 28.6072 87.5671 28.9513C88.1597 29.2954 88.8288 29.4675 89.5744 29.4675ZM93.6178 32.9086V29.7542L93.7038 25.1661L93.417 20.6065V11.6309H97.8905V32.9086H93.6178ZM109.687 33.138C107.929 33.138 106.38 32.7939 105.042 32.1057C103.723 31.4175 102.7 30.4807 101.974 29.2954C101.247 28.091 100.884 26.7241 100.884 25.1947C100.884 23.6462 101.237 22.2793 101.945 21.094C102.671 19.8896 103.656 18.9529 104.898 18.2838C106.141 17.5955 107.546 17.2514 109.114 17.2514C110.624 17.2514 111.982 17.5764 113.186 18.2264C114.409 18.8573 115.375 19.7749 116.082 20.9793C116.79 22.1646 117.143 23.5889 117.143 25.2521C117.143 25.4241 117.134 25.6249 117.115 25.8543C117.095 26.0646 117.076 26.2653 117.057 26.4565H104.526V23.8469H114.706L112.985 24.6212C112.985 23.8183 112.823 23.1205 112.498 22.5278C112.173 21.9352 111.723 21.4764 111.15 21.1514C110.576 20.8073 109.907 20.6352 109.143 20.6352C108.378 20.6352 107.699 20.8073 107.107 21.1514C106.533 21.4764 106.084 21.9448 105.759 22.5565C105.434 23.1492 105.271 23.8565 105.271 24.6786V25.3668C105.271 26.208 105.453 26.9535 105.816 27.6035C106.198 28.2344 106.724 28.7219 107.393 29.066C108.082 29.391 108.884 29.5535 109.802 29.5535C110.624 29.5535 111.341 29.4293 111.953 29.1807C112.584 28.9322 113.157 28.5594 113.673 28.0624L116.054 30.6432C115.346 31.4461 114.457 32.0675 113.387 32.5072C112.316 32.9277 111.083 33.138 109.687 33.138ZM120.122 32.9086V11.6309H124.595V32.9086H120.122ZM128.747 32.9086V17.4808H133.22V32.9086H128.747ZM130.984 15.3301C130.161 15.3301 129.492 15.0911 128.976 14.6132C128.46 14.1353 128.202 13.5426 128.202 12.8353C128.202 12.1279 128.46 11.5353 128.976 11.0574C129.492 10.5794 130.161 10.3405 130.984 10.3405C131.806 10.3405 132.475 10.5699 132.991 11.0287C133.507 11.4684 133.765 12.0419 133.765 12.7493C133.765 13.4948 133.507 14.1162 132.991 14.6132C132.494 15.0911 131.825 15.3301 130.984 15.3301ZM141.559 32.9086L135.078 17.4808H139.695L145.086 30.7579H142.792L148.384 17.4808H152.685L146.176 32.9086H141.559ZM161.747 33.138C159.988 33.138 158.44 32.7939 157.102 32.1057C155.782 31.4175 154.76 30.4807 154.033 29.2954C153.307 28.091 152.943 26.7241 152.943 25.1947C152.943 23.6462 153.297 22.2793 154.004 21.094C154.731 19.8896 155.715 18.9529 156.958 18.2838C158.201 17.5955 159.606 17.2514 161.174 17.2514C162.684 17.2514 164.041 17.5764 165.246 18.2264C166.469 18.8573 167.434 19.7749 168.142 20.9793C168.849 22.1646 169.203 23.5889 169.203 25.2521C169.203 25.4241 169.193 25.6249 169.174 25.8543C169.155 26.0646 169.136 26.2653 169.117 26.4565H156.585V23.8469H166.765L165.045 24.6212C165.045 23.8183 164.882 23.1205 164.557 22.5278C164.232 21.9352 163.783 21.4764 163.21 21.1514C162.636 20.8073 161.967 20.6352 161.202 20.6352C160.438 20.6352 159.759 20.8073 159.166 21.1514C158.593 21.4764 158.143 21.9448 157.818 22.5565C157.493 23.1492 157.331 23.8565 157.331 24.6786V25.3668C157.331 26.208 157.513 26.9535 157.876 27.6035C158.258 28.2344 158.784 28.7219 159.453 29.066C160.141 29.391 160.944 29.5535 161.862 29.5535C162.684 29.5535 163.401 29.4293 164.012 29.1807C164.643 28.9322 165.217 28.5594 165.733 28.0624L168.113 30.6432C167.406 31.4461 166.517 32.0675 165.446 32.5072C164.376 32.9277 163.143 33.138 161.747 33.138ZM172.181 32.9086V17.4808H176.454V21.8396L175.852 20.5779C176.311 19.4882 177.047 18.6661 178.06 18.1117C179.073 17.5382 180.306 17.2514 181.759 17.2514V21.3808C181.568 21.3617 181.396 21.3521 181.243 21.3521C181.09 21.333 180.927 21.3234 180.755 21.3234C179.532 21.3234 178.538 21.6771 177.773 22.3845C177.027 23.0727 176.655 24.1528 176.655 25.6249V32.9086H172.181ZM186.901 38.7012C186.098 38.7012 185.305 38.577 184.521 38.3284C183.737 38.0799 183.097 37.7358 182.6 37.2961L184.234 34.113C184.578 34.4189 184.97 34.6579 185.41 34.8299C185.869 35.002 186.318 35.088 186.758 35.088C187.389 35.088 187.886 34.9351 188.249 34.6292C188.631 34.3424 188.975 33.8549 189.281 33.1667L190.084 31.2741L190.428 30.7866L195.963 17.4808H200.264L193.296 33.8549C192.799 35.0976 192.225 36.0726 191.575 36.7799C190.944 37.4873 190.237 37.9843 189.453 38.2711C188.689 38.5578 187.838 38.7012 186.901 38.7012ZM189.539 33.5108L182.657 17.4808H187.274L192.608 30.3851L189.539 33.5108Z" fill="black"/>
<mask id="mask0_354_3080" style="mask-type:alpha" maskUnits="userSpaceOnUse" x="2" y="8" width="29" height="31">
<path d="M3.60205 30.5176V15.9834C3.60205 15.572 3.83389 15.1957 4.20136 15.0107L15.7855 9.17857C15.7855 9.17857 16.1258 8.95226 16.7157 8.94469C17.1485 8.93914 17.4467 9.06765 17.5748 9.13648C17.6232 9.16246 17.67 9.19097 17.719 9.21567L29.2227 15.0107C29.5901 15.1957 29.8218 15.5719 29.8218 15.9833V30.5076C29.8218 30.9192 29.5898 31.2956 29.2221 31.4806L17.4644 37.3934C17.4644 37.3934 17.0334 37.5921 16.7006 37.5921C16.3678 37.5921 15.846 37.3934 15.846 37.3934L4.19867 31.489C3.83268 31.3034 3.60205 30.9279 3.60205 30.5176Z" fill="white" stroke="#58BA5F" stroke-width="1.67891"/>
</mask>
<g mask="url(#mask0_354_3080)">
<path d="M16.7129 37.5921V22.9508L17.1591 22.8147L17.6885 22.6407L28.5712 17.0973L29.5316 16.583L29.8039 16.3713V30.4454L29.7661 30.8387L29.6299 31.1563L29.4484 31.3605L17.3406 37.4863L16.9171 37.6073L16.7129 37.5921Z" fill="#58BA5F"/>
<path d="M3.83404 16.5225L3.61472 16.2578L3.58447 30.4529L3.68279 30.9596L3.93236 31.3529L15.3142 37.1232L15.9797 37.4635L16.7133 37.5694V22.9281L16.7057 22.9054L16.4637 22.8449L16.1839 22.7617L15.8209 22.6105L4.59787 17.0065L4.08361 16.7569L3.83404 16.5225Z" fill="#58BA5F"/>
<path d="M3.62204 15.7435L3.57666 16.1822L4.02286 16.7116L15.4954 22.4819L16.1307 22.8071L16.8416 22.913L17.6659 22.6256L29.2746 16.7494L29.7511 16.2956L29.8343 15.8041L29.683 15.4184L29.2746 15.0478L17.6357 9.16403L17.1895 8.97496L16.5315 8.95227L15.9946 9.06571L4.85475 14.715L4.23461 15.0024L3.77329 15.3654L3.62204 15.7435Z" fill="#58BA5F"/>
<path d="M25.7709 7.91589L6.58936 17.7423L11.0055 20.0465L30.3212 10.2304L25.7709 7.91589Z" fill="white" stroke="white" stroke-width="0.166379"/>
<path d="M11.616 30.1352V20.1084L6.73047 17.5963V27.7552L11.616 30.1352Z" fill="white"/>
<path d="M3.60205 30.5176V15.9834C3.60205 15.572 3.83389 15.1957 4.20136 15.0107L15.7855 9.17857C15.7855 9.17857 16.1258 8.95226 16.7157 8.94469C17.1485 8.93914 17.4467 9.06765 17.5748 9.13648C17.6232 9.16246 17.67 9.19097 17.719 9.21567L29.2227 15.0107C29.5901 15.1957 29.8218 15.5719 29.8218 15.9833V30.5076C29.8218 30.9192 29.5898 31.2956 29.2221 31.4806L17.4644 37.3934C17.4644 37.3934 17.0334 37.5921 16.7006 37.5921C16.3678 37.5921 15.846 37.3934 15.846 37.3934L4.19867 31.489C3.83268 31.3034 3.60205 30.9279 3.60205 30.5176Z" stroke="#58BA5F" stroke-width="1.67891"/>
<path d="M2.35156 15.6829L15.8434 22.6407L16.3693 22.8295C16.6016 22.9129 16.8555 22.9149 17.0891 22.8351L17.5789 22.6678C17.6318 22.6498 17.6833 22.6276 17.7328 22.6017L30.9233 15.6829" stroke="white" stroke-width="1.79992"/>
</g>
<path d="M70.36 48.02C69.8667 48.02 69.62 47.74 69.62 47.18C69.62 46.86 69.7133 46.48 69.9 46.04C70.0867 45.5867 70.3667 45.1133 70.74 44.62C71.0067 44.2867 71.3333 43.9333 71.72 43.56C72.1067 43.1733 72.5267 42.8067 72.98 42.46C73.4467 42.1133 73.92 41.8333 74.4 41.62C74.88 41.3933 75.3467 41.28 75.8 41.28C76 41.28 76.14 41.3133 76.22 41.38C76.3 41.4333 76.3533 41.4933 76.38 41.56C76.4067 41.6133 76.4067 41.6533 76.38 41.68C76.3667 41.7067 76.3467 41.7133 76.32 41.7C76.2667 41.6733 76.16 41.66 76 41.66C75.52 41.66 74.9467 41.8933 74.28 42.36C73.6267 42.8133 72.98 43.4067 72.34 44.14C71.8867 44.6467 71.5133 45.1467 71.22 45.64C70.9267 46.12 70.7333 46.52 70.64 46.84C70.6133 46.9467 70.6 47.04 70.6 47.12C70.6 47.3067 70.6733 47.4 70.82 47.4C70.9133 47.4 71.04 47.36 71.2 47.28C71.36 47.1867 71.5667 47.0333 71.82 46.82C72.22 46.4733 72.6133 46.0667 73 45.6C73.4 45.1333 73.7933 44.66 74.18 44.18C74.5667 43.6867 74.94 43.2333 75.3 42.82C75.6733 42.4067 76.0267 42.0933 76.36 41.88C76.7867 41.6 77.08 41.44 77.24 41.4C77.4133 41.36 77.5533 41.3333 77.66 41.32C77.5933 41.4 77.4467 41.5867 77.22 41.88C76.9933 42.1733 76.7533 42.4867 76.5 42.82C76.2467 43.14 76.04 43.4067 75.88 43.62C75.64 43.9667 75.38 44.34 75.1 44.74C74.8333 45.14 74.5867 45.52 74.36 45.88C74.1467 46.2267 74 46.5133 73.92 46.74C73.8533 46.9667 73.82 47.1333 73.82 47.24C73.82 47.4533 73.9067 47.56 74.08 47.56C74.2 47.56 74.34 47.5133 74.5 47.42C74.6733 47.3133 74.8467 47.1933 75.02 47.06C75.2467 46.8733 75.46 46.68 75.66 46.48C75.86 46.2667 76.0667 46.0333 76.28 45.78C76.3333 45.78 76.36 45.82 76.36 45.9C76.36 46.02 76.3333 46.1133 76.28 46.18C76.1067 46.38 75.8933 46.6 75.64 46.84C75.4 47.08 75.16 47.2933 74.92 47.48C74.7467 47.6267 74.5467 47.7533 74.32 47.86C74.0933 47.9667 73.8733 48.02 73.66 48.02C73.3533 48.02 73.14 47.9467 73.02 47.8C72.9 47.6533 72.84 47.4667 72.84 47.24C72.84 46.9733 72.9 46.6867 73.02 46.38C73.14 46.06 73.2733 45.76 73.42 45.48C73.2467 45.6933 73.0267 45.9533 72.76 46.26C72.4933 46.5533 72.2533 46.8 72.04 47C71.7467 47.2667 71.4667 47.5067 71.2 47.72C70.9333 47.92 70.6533 48.02 70.36 48.02ZM79.5709 48.02C79.0776 48.0467 78.8309 47.7667 78.8309 47.18C78.8309 46.86 78.9243 46.48 79.1109 46.04C79.2976 45.5867 79.5776 45.1133 79.9509 44.62C80.2443 44.2467 80.6176 43.84 81.0709 43.4C81.5243 42.96 82.0176 42.56 82.5509 42.2C83.0843 41.8267 83.6176 41.56 84.1509 41.4C84.2976 41.36 84.4509 41.3333 84.6109 41.32C84.7709 41.2933 84.9643 41.28 85.1909 41.28C85.4043 41.28 85.5109 41.3067 85.5109 41.36C85.5109 41.4267 85.4176 41.48 85.2309 41.52C85.0709 41.56 84.8776 41.6267 84.6509 41.72C84.4243 41.8133 84.2176 41.9133 84.0309 42.02C83.6443 42.2333 83.2376 42.5267 82.8109 42.9C82.3843 43.26 81.9643 43.6733 81.5509 44.14C81.0976 44.6467 80.7243 45.1467 80.4309 45.64C80.1376 46.12 79.9443 46.52 79.8509 46.84C79.8243 46.9467 79.8109 47.04 79.8109 47.12C79.8109 47.3067 79.8843 47.4 80.0309 47.4C80.1243 47.4 80.2509 47.36 80.4109 47.28C80.5709 47.1867 80.7776 47.0333 81.0309 46.82C81.5376 46.3933 82.0443 45.9067 82.5509 45.36C83.0709 44.8133 83.5376 44.2467 83.9509 43.66C84.2709 43.2067 84.6443 42.7267 85.0709 42.22C85.4976 41.7 85.9443 41.2 86.4109 40.72C86.8776 40.2267 87.3309 39.78 87.7709 39.38C88.2243 38.98 88.6309 38.66 88.9909 38.42C89.4043 38.14 89.6909 37.98 89.8509 37.94C90.0243 37.9 90.1709 37.88 90.2909 37.88C90.1709 37.9733 89.9109 38.2133 89.5109 38.6C89.1243 38.9733 88.6576 39.4467 88.1109 40.02C87.5776 40.5933 87.0176 41.2133 86.4309 41.88C85.8576 42.5467 85.3309 43.2133 84.8509 43.88C84.4776 44.3867 84.1243 44.9133 83.7909 45.46C83.4576 45.9933 83.2376 46.42 83.1309 46.74C83.0909 46.8467 83.0643 46.94 83.0509 47.02C83.0376 47.1 83.0309 47.1733 83.0309 47.24C83.0309 47.4533 83.1176 47.56 83.2909 47.56C83.4109 47.56 83.5509 47.5133 83.7109 47.42C83.8843 47.3133 84.0576 47.1933 84.2309 47.06C84.4576 46.8733 84.6776 46.6667 84.8909 46.44C85.1176 46.2133 85.3176 45.9933 85.4909 45.78C85.5443 45.78 85.5709 45.82 85.5709 45.9C85.5709 46.02 85.5443 46.1133 85.4909 46.18C85.3176 46.38 85.1043 46.6 84.8509 46.84C84.6109 47.08 84.3709 47.2933 84.1309 47.48C83.9576 47.6267 83.7576 47.7533 83.5309 47.86C83.3043 47.9667 83.0843 48.02 82.8709 48.02C82.5643 48.02 82.3443 47.9467 82.2109 47.8C82.0909 47.6533 82.0309 47.4667 82.0309 47.24C82.0309 47.0133 82.0776 46.7667 82.1709 46.5C82.2643 46.2333 82.3776 45.9733 82.5109 45.72C82.2843 45.96 82.0376 46.22 81.7709 46.5C81.5043 46.7667 81.3309 46.9333 81.2509 47C80.9576 47.2667 80.6776 47.5 80.4109 47.7C80.1443 47.8867 79.8643 47.9933 79.5709 48.02ZM94.36 48.02C94.08 48.02 93.88 47.9467 93.76 47.8C93.64 47.64 93.58 47.44 93.58 47.2C93.58 46.84 93.7067 46.4333 93.96 45.98C94.2133 45.5133 94.54 45.0267 94.94 44.52C95.3533 44.0133 95.78 43.5133 96.22 43.02C96.6733 42.5267 97.1 42.0733 97.5 41.66C97.3 41.66 97.08 41.7133 96.84 41.82C96.6133 41.9267 96.38 42.0533 96.14 42.2C95.7667 42.4533 95.3533 42.7867 94.9 43.2C94.46 43.6133 94.02 44.06 93.58 44.54C93.14 45.0067 92.7267 45.46 92.34 45.9C92.1267 46.2333 91.9333 46.5467 91.76 46.84C91.5867 47.1333 91.4667 47.3867 91.4 47.6C91.1333 47.4933 91 47.3 91 47.02C91 46.8067 91.06 46.56 91.18 46.28C91.42 45.7467 91.7333 45.2133 92.12 44.68C92.5067 44.1467 92.92 43.6267 93.36 43.12C93.8133 42.6 94.2333 42.1067 94.62 41.64C94.38 41.64 94.08 41.7467 93.72 41.96C93.36 42.16 93 42.3933 92.64 42.66C92.2933 42.9267 92.0133 43.1733 91.8 43.4C91.52 43.6933 91.1867 44.06 90.8 44.5C90.4267 44.94 90.0533 45.38 89.68 45.82C89.32 46.2467 89.0267 46.6133 88.8 46.92C88.56 47.24 88.4 47.4867 88.32 47.66C88.2267 47.8333 88.1667 47.94 88.14 47.98C87.9267 47.98 87.82 47.8533 87.82 47.6C87.82 47.3333 87.9067 47.0133 88.08 46.64C88.24 46.2667 88.38 45.9733 88.5 45.76C88.8467 45.1733 89.24 44.56 89.68 43.92C90.1333 43.2667 90.5533 42.6933 90.94 42.2C91.14 41.9333 91.3533 41.74 91.58 41.62C91.8067 41.4867 92 41.4067 92.16 41.38C92.32 41.34 92.4 41.32 92.4 41.32C92.32 41.44 92.1533 41.6867 91.9 42.06C91.66 42.4333 91.38 42.8733 91.06 43.38C90.74 43.8733 90.4133 44.3867 90.08 44.92C90.6133 44.2667 91.1733 43.64 91.76 43.04C92.3467 42.44 92.9067 41.9867 93.44 41.68C93.88 41.44 94.2933 41.32 94.68 41.32C94.9867 41.32 95.14 41.4267 95.14 41.64C95.14 41.84 95.0333 42.08 94.82 42.36C94.7267 42.48 94.6 42.6533 94.44 42.88C94.28 43.1067 94.1333 43.3133 94 43.5C93.88 43.6867 93.82 43.78 93.82 43.78L93.7 43.96C94.1267 43.52 94.56 43.1067 95 42.72C95.44 42.3333 95.8667 42.0067 96.28 41.74C96.4533 41.62 96.6333 41.52 96.82 41.44C97.0067 41.36 97.2 41.32 97.4 41.32C97.76 41.32 97.94 41.46 97.94 41.74C97.94 41.9533 97.8133 42.2067 97.56 42.5C97.2533 42.86 96.92 43.26 96.56 43.7C96.2 44.14 95.8533 44.5867 95.52 45.04C95.2 45.4933 94.9333 45.9133 94.72 46.3C94.52 46.6867 94.42 47 94.42 47.24C94.42 47.3733 94.4533 47.4733 94.52 47.54C94.6 47.5933 94.6667 47.62 94.72 47.62C94.92 47.62 95.14 47.54 95.38 47.38C95.6333 47.22 95.8733 47.0333 96.1 46.82C96.34 46.5933 96.5467 46.38 96.72 46.18C96.9067 45.98 97.0267 45.8467 97.08 45.78C97.1333 45.78 97.16 45.82 97.16 45.9C97.16 46.02 97.1333 46.1133 97.08 46.18C96.8933 46.38 96.6467 46.6267 96.34 46.92C96.0333 47.2133 95.7067 47.4733 95.36 47.7C95.0133 47.9133 94.68 48.02 94.36 48.02ZM105.054 40.48C104.788 40.48 104.654 40.3733 104.654 40.16C104.654 40.0933 104.674 40.02 104.714 39.94C104.781 39.78 104.894 39.64 105.054 39.52C105.228 39.3867 105.394 39.32 105.554 39.32C105.808 39.32 105.934 39.4267 105.934 39.64C105.934 39.84 105.841 40.0267 105.654 40.2C105.468 40.3733 105.268 40.4667 105.054 40.48ZM100.714 48.04C100.354 48.04 100.101 47.9467 99.9542 47.76C99.7942 47.56 99.7142 47.3133 99.7142 47.02C99.7142 46.6333 99.8342 46.22 100.074 45.78C100.301 45.3267 100.588 44.88 100.934 44.44C101.281 43.9867 101.634 43.5667 101.994 43.18C102.354 42.78 102.668 42.4533 102.934 42.2C103.188 41.9467 103.448 41.76 103.714 41.64C103.981 41.52 104.208 41.44 104.394 41.4C104.594 41.3467 104.694 41.32 104.694 41.32C104.401 41.6533 104.001 42.1267 103.494 42.74C102.988 43.3533 102.488 44.0067 101.994 44.7C101.954 44.7533 101.861 44.8867 101.714 45.1C101.568 45.3133 101.401 45.56 101.214 45.84C101.041 46.12 100.888 46.3933 100.754 46.66C100.634 46.9267 100.574 47.14 100.574 47.3C100.574 47.5533 100.708 47.68 100.974 47.68C101.174 47.68 101.388 47.6067 101.614 47.46C101.854 47.3133 102.094 47.1333 102.334 46.92C102.574 46.7067 102.788 46.5 102.974 46.3C103.174 46.0867 103.328 45.9133 103.434 45.78C103.488 45.78 103.514 45.82 103.514 45.9C103.514 46.02 103.488 46.1133 103.434 46.18C102.928 46.7667 102.468 47.2267 102.054 47.56C101.654 47.88 101.208 48.04 100.714 48.04ZM109.594 48.02C109.314 48.02 109.114 47.9467 108.994 47.8C108.874 47.64 108.814 47.44 108.814 47.2C108.814 46.84 108.94 46.4333 109.194 45.98C109.447 45.5133 109.774 45.0267 110.174 44.52C110.587 44.0133 111.014 43.5133 111.454 43.02C111.907 42.5267 112.334 42.0733 112.734 41.66C112.534 41.66 112.314 41.7133 112.074 41.82C111.847 41.9267 111.614 42.0533 111.374 42.2C111.014 42.44 110.62 42.76 110.194 43.16C109.767 43.56 109.34 43.9867 108.914 44.44C108.487 44.8933 108.08 45.34 107.694 45.78C107.387 46.14 107.14 46.44 106.954 46.68C106.78 46.92 106.627 47.14 106.494 47.34C106.374 47.5267 106.24 47.74 106.094 47.98C105.88 47.98 105.774 47.8533 105.774 47.6C105.774 47.3333 105.86 47.0133 106.034 46.64C106.194 46.2667 106.334 45.9733 106.454 45.76C106.8 45.1733 107.194 44.56 107.634 43.92C108.087 43.2667 108.507 42.6933 108.894 42.2C109.094 41.9333 109.307 41.74 109.534 41.62C109.76 41.4867 109.954 41.4067 110.114 41.38C110.274 41.34 110.354 41.32 110.354 41.32C110.274 41.44 110.107 41.6933 109.854 42.08C109.6 42.4667 109.307 42.92 108.974 43.44C108.64 43.96 108.3 44.4867 107.954 45.02C108.5 44.3933 109.087 43.7867 109.714 43.2C110.34 42.6 110.94 42.1133 111.514 41.74C111.687 41.62 111.867 41.52 112.054 41.44C112.24 41.36 112.434 41.32 112.634 41.32C112.994 41.32 113.174 41.46 113.174 41.74C113.174 41.9533 113.047 42.2067 112.794 42.5C112.487 42.86 112.154 43.26 111.794 43.7C111.434 44.14 111.087 44.5867 110.754 45.04C110.434 45.4933 110.167 45.9133 109.954 46.3C109.754 46.6867 109.654 47 109.654 47.24C109.654 47.3733 109.687 47.4733 109.754 47.54C109.834 47.5933 109.9 47.62 109.954 47.62C110.154 47.62 110.374 47.54 110.614 47.38C110.867 47.22 111.107 47.0333 111.334 46.82C111.574 46.5933 111.78 46.38 111.954 46.18C112.14 45.98 112.26 45.8467 112.314 45.78C112.367 45.78 112.394 45.82 112.394 45.9C112.394 46.02 112.367 46.1133 112.314 46.18C112.127 46.38 111.88 46.6267 111.574 46.92C111.267 47.2133 110.94 47.4733 110.594 47.7C110.247 47.9133 109.914 48.02 109.594 48.02ZM115.976 52.84C115.616 52.84 115.316 52.8 115.076 52.72C114.969 52.6667 114.862 52.5933 114.756 52.5C114.636 52.4067 114.556 52.2867 114.516 52.14C114.662 52.26 114.829 52.3467 115.016 52.4C115.202 52.4667 115.429 52.4933 115.696 52.48C116.469 52.48 117.196 52.2667 117.876 51.84C118.542 51.4133 119.169 50.8533 119.756 50.16C120.342 49.48 120.889 48.7533 121.396 47.98C122.209 46.7667 122.982 45.54 123.716 44.3C124.449 43.0467 125.216 41.84 126.016 40.68C126.202 40.6933 126.296 40.8267 126.296 41.08C126.296 41.4133 126.129 41.92 125.796 42.6C125.462 43.2667 125.002 44.0533 124.416 44.96C124.362 45.0267 124.316 45.1 124.276 45.18C124.236 45.26 124.189 45.34 124.136 45.42C124.536 44.9533 124.949 44.48 125.376 44C125.816 43.5067 126.249 43.06 126.676 42.66C127.102 42.2467 127.516 41.9133 127.916 41.66C128.316 41.4067 128.682 41.28 129.016 41.28C129.442 41.28 129.656 41.54 129.656 42.06C129.656 42.38 129.556 42.78 129.356 43.26C129.156 43.74 128.849 44.2467 128.436 44.78C128.182 45.1133 127.862 45.4733 127.476 45.86C127.102 46.2333 126.689 46.5933 126.236 46.94C125.796 47.2733 125.342 47.5467 124.876 47.76C124.409 47.9733 123.956 48.08 123.516 48.08C123.156 48.08 122.942 48.0133 122.876 47.88C122.849 47.84 122.842 47.8067 122.856 47.78C122.882 47.7533 122.902 47.74 122.916 47.74C122.916 47.74 122.949 47.7467 123.016 47.76C123.082 47.7733 123.162 47.78 123.256 47.78C123.576 47.78 123.942 47.6667 124.356 47.44C124.769 47.2133 125.202 46.9067 125.656 46.52C126.122 46.1333 126.562 45.7 126.976 45.22C127.429 44.7133 127.809 44.2133 128.116 43.72C128.422 43.2133 128.622 42.8 128.716 42.48C128.742 42.3733 128.756 42.2867 128.756 42.22C128.756 42.1133 128.729 42.0267 128.676 41.96C128.636 41.88 128.549 41.8533 128.416 41.88C128.082 41.96 127.682 42.1933 127.216 42.58C126.749 42.9667 126.262 43.4267 125.756 43.96C125.249 44.4933 124.762 45.0333 124.296 45.58C123.842 46.1133 123.442 46.58 123.096 46.98C122.602 47.7267 122.042 48.4933 121.416 49.28C120.776 50.08 120.096 50.7867 119.376 51.4C118.642 52.0267 117.876 52.46 117.076 52.7C116.822 52.7933 116.456 52.84 115.976 52.84ZM132.415 48.02C131.921 48.02 131.675 47.74 131.675 47.18C131.675 46.86 131.768 46.48 131.955 46.04C132.141 45.5867 132.421 45.1133 132.795 44.62C133.061 44.2867 133.388 43.9333 133.775 43.56C134.161 43.1733 134.581 42.8067 135.035 42.46C135.501 42.1133 135.975 41.8333 136.455 41.62C136.935 41.3933 137.401 41.28 137.855 41.28C138.055 41.28 138.195 41.3133 138.275 41.38C138.355 41.4333 138.408 41.4933 138.435 41.56C138.461 41.6133 138.461 41.6533 138.435 41.68C138.421 41.7067 138.401 41.7133 138.375 41.7C138.321 41.6733 138.215 41.66 138.055 41.66C137.575 41.66 137.001 41.8933 136.335 42.36C135.681 42.8133 135.035 43.4067 134.395 44.14C133.941 44.6467 133.568 45.1467 133.275 45.64C132.981 46.12 132.788 46.52 132.695 46.84C132.668 46.9467 132.655 47.04 132.655 47.12C132.655 47.3067 132.728 47.4 132.875 47.4C132.968 47.4 133.095 47.36 133.255 47.28C133.415 47.1867 133.621 47.0333 133.875 46.82C134.275 46.4733 134.668 46.0667 135.055 45.6C135.455 45.1333 135.848 44.66 136.235 44.18C136.621 43.6867 136.995 43.2333 137.355 42.82C137.728 42.4067 138.081 42.0933 138.415 41.88C138.841 41.6 139.135 41.44 139.295 41.4C139.468 41.36 139.608 41.3333 139.715 41.32C139.648 41.4 139.501 41.5867 139.275 41.88C139.048 42.1733 138.808 42.4867 138.555 42.82C138.301 43.14 138.095 43.4067 137.935 43.62C137.695 43.9667 137.435 44.34 137.155 44.74C136.888 45.14 136.641 45.52 136.415 45.88C136.201 46.2267 136.055 46.5133 135.975 46.74C135.908 46.9667 135.875 47.1333 135.875 47.24C135.875 47.4533 135.961 47.56 136.135 47.56C136.255 47.56 136.395 47.5133 136.555 47.42C136.728 47.3133 136.901 47.1933 137.075 47.06C137.301 46.8733 137.515 46.68 137.715 46.48C137.915 46.2667 138.121 46.0333 138.335 45.78C138.388 45.78 138.415 45.82 138.415 45.9C138.415 46.02 138.388 46.1133 138.335 46.18C138.161 46.38 137.948 46.6 137.695 46.84C137.455 47.08 137.215 47.2933 136.975 47.48C136.801 47.6267 136.601 47.7533 136.375 47.86C136.148 47.9667 135.928 48.02 135.715 48.02C135.408 48.02 135.195 47.9467 135.075 47.8C134.955 47.6533 134.895 47.4667 134.895 47.24C134.895 46.9733 134.955 46.6867 135.075 46.38C135.195 46.06 135.328 45.76 135.475 45.48C135.301 45.6933 135.081 45.9533 134.815 46.26C134.548 46.5533 134.308 46.8 134.095 47C133.801 47.2667 133.521 47.5067 133.255 47.72C132.988 47.92 132.708 48.02 132.415 48.02ZM144.426 48.02C144.146 48.02 143.946 47.9467 143.826 47.8C143.706 47.64 143.646 47.44 143.646 47.2C143.646 46.84 143.772 46.4333 144.026 45.98C144.279 45.5133 144.606 45.0267 145.006 44.52C145.419 44.0133 145.846 43.5133 146.286 43.02C146.739 42.5267 147.166 42.0733 147.566 41.66C147.366 41.66 147.146 41.7133 146.906 41.82C146.679 41.9267 146.446 42.0533 146.206 42.2C145.846 42.44 145.452 42.76 145.026 43.16C144.599 43.56 144.172 43.9867 143.746 44.44C143.319 44.8933 142.912 45.34 142.526 45.78C142.219 46.14 141.972 46.44 141.786 46.68C141.612 46.92 141.459 47.14 141.326 47.34C141.206 47.5267 141.072 47.74 140.926 47.98C140.712 47.98 140.606 47.8533 140.606 47.6C140.606 47.3333 140.692 47.0133 140.866 46.64C141.026 46.2667 141.166 45.9733 141.286 45.76C141.632 45.1733 142.026 44.56 142.466 43.92C142.919 43.2667 143.339 42.6933 143.726 42.2C143.926 41.9333 144.139 41.74 144.366 41.62C144.592 41.4867 144.786 41.4067 144.946 41.38C145.106 41.34 145.186 41.32 145.186 41.32C145.106 41.44 144.939 41.6933 144.686 42.08C144.432 42.4667 144.139 42.92 143.806 43.44C143.472 43.96 143.132 44.4867 142.786 45.02C143.332 44.3933 143.919 43.7867 144.546 43.2C145.172 42.6 145.772 42.1133 146.346 41.74C146.519 41.62 146.699 41.52 146.886 41.44C147.072 41.36 147.266 41.32 147.466 41.32C147.826 41.32 148.006 41.46 148.006 41.74C148.006 41.9533 147.879 42.2067 147.626 42.5C147.319 42.86 146.986 43.26 146.626 43.7C146.266 44.14 145.919 44.5867 145.586 45.04C145.266 45.4933 144.999 45.9133 144.786 46.3C144.586 46.6867 144.486 47 144.486 47.24C144.486 47.3733 144.519 47.4733 144.586 47.54C144.666 47.5933 144.732 47.62 144.786 47.62C144.986 47.62 145.206 47.54 145.446 47.38C145.699 47.22 145.939 47.0333 146.166 46.82C146.406 46.5933 146.612 46.38 146.786 46.18C146.972 45.98 147.092 45.8467 147.146 45.78C147.199 45.78 147.226 45.82 147.226 45.9C147.226 46.02 147.199 46.1133 147.146 46.18C146.959 46.38 146.712 46.6267 146.406 46.92C146.099 47.2133 145.772 47.4733 145.426 47.7C145.079 47.9133 144.746 48.02 144.426 48.02ZM151.665 48.14C151.051 48.14 150.618 48.0067 150.365 47.74C150.111 47.4733 149.985 47.1133 149.985 46.66C149.985 46.22 150.105 45.76 150.345 45.28C150.598 44.7867 150.911 44.32 151.285 43.88C151.511 43.6133 151.791 43.3333 152.125 43.04C152.458 42.7467 152.818 42.4733 153.205 42.22C153.591 41.9533 153.971 41.74 154.345 41.58C154.731 41.4067 155.071 41.32 155.365 41.32C155.525 41.32 155.671 41.36 155.805 41.44C155.938 41.5067 156.005 41.66 156.005 41.9C156.005 42.2333 155.845 42.5533 155.525 42.86C155.205 43.1533 154.845 43.4267 154.445 43.68C153.991 43.9733 153.518 44.22 153.025 44.42C152.531 44.62 152.105 44.7733 151.745 44.88C151.545 45.2 151.385 45.5267 151.265 45.86C151.145 46.1933 151.085 46.52 151.085 46.84C151.085 47.1867 151.165 47.4267 151.325 47.56C151.498 47.68 151.698 47.74 151.925 47.74C152.338 47.74 152.711 47.6467 153.045 47.46C153.391 47.26 153.711 47.0067 154.005 46.7C154.298 46.3933 154.578 46.0867 154.845 45.78C154.898 45.78 154.925 45.82 154.925 45.9C154.925 46.02 154.898 46.1133 154.845 46.18C154.578 46.4867 154.285 46.7933 153.965 47.1C153.658 47.4067 153.318 47.66 152.945 47.86C152.571 48.0467 152.145 48.14 151.665 48.14ZM151.985 44.6C152.331 44.48 152.738 44.3133 153.205 44.1C153.685 43.8867 154.105 43.6533 154.465 43.4C154.545 43.3467 154.685 43.24 154.885 43.08C155.085 42.9067 155.271 42.72 155.445 42.52C155.618 42.3067 155.705 42.12 155.705 41.96C155.705 41.7467 155.598 41.64 155.385 41.64C155.158 41.64 154.898 41.74 154.605 41.94C154.325 42.14 154.098 42.3133 153.925 42.46C153.605 42.7533 153.271 43.08 152.925 43.44C152.578 43.8 152.265 44.1867 151.985 44.6ZM158.412 48.06C157.745 48.06 157.412 47.7533 157.412 47.14C157.412 46.94 157.458 46.7067 157.552 46.44C157.645 46.1733 157.818 45.82 158.072 45.38C158.418 44.78 158.905 44.0733 159.532 43.26C160.172 42.4467 160.852 41.6533 161.572 40.88C162.198 40.1733 162.878 39.5267 163.612 38.94C164.358 38.34 165.132 37.9267 165.932 37.7C166.052 37.66 166.192 37.6267 166.352 37.6C166.512 37.5733 166.678 37.56 166.852 37.56C167.172 37.56 167.445 37.6067 167.672 37.7C167.778 37.7533 167.885 37.8267 167.992 37.92C168.098 38 168.172 38.12 168.212 38.28C168.065 38.16 167.898 38.0733 167.712 38.02C167.525 37.9533 167.298 37.92 167.032 37.92C166.338 37.92 165.672 38.1467 165.032 38.6C164.392 39.0533 163.752 39.64 163.112 40.36C162.485 41.0667 161.825 41.82 161.132 42.62C160.865 42.9267 160.572 43.3067 160.252 43.76C159.932 44.2133 159.625 44.6667 159.332 45.12C159.052 45.5733 158.825 45.96 158.652 46.28C158.558 46.4267 158.485 46.5867 158.432 46.76C158.392 46.92 158.372 47.0533 158.372 47.16C158.372 47.48 158.492 47.64 158.732 47.64C158.985 47.64 159.265 47.52 159.572 47.28C159.892 47.04 160.192 46.7733 160.472 46.48C160.765 46.1867 160.985 45.9533 161.132 45.78C161.185 45.78 161.212 45.82 161.212 45.9C161.212 46.02 161.185 46.1133 161.132 46.18C160.598 46.7933 160.105 47.26 159.652 47.58C159.212 47.9 158.798 48.06 158.412 48.06Z" fill="#1E1E1E"/>
</svg>
