<svg width="237" height="37" viewBox="0 0 237 37" fill="none" xmlns="http://www.w3.org/2000/svg">
<path d="M57.4455 29.6688C55.9447 29.6688 54.6007 29.3776 53.4135 28.7952C52.2487 28.2128 51.3415 27.328 50.6919 26.1408C50.0423 24.9312 49.7175 23.3968 49.7175 21.5376V11.3232H54.9591V20.7648C54.9591 22.2656 55.2727 23.3744 55.8999 24.0912C56.5495 24.7856 57.4567 25.1328 58.6215 25.1328C59.4279 25.1328 60.1447 24.9648 60.7719 24.6288C61.3991 24.2704 61.8919 23.7328 62.2503 23.016C62.6087 22.2768 62.7879 21.3584 62.7879 20.2608V11.3232H68.0295V29.4H63.0567V24.4272L63.9639 25.872C63.3591 27.1264 62.4631 28.0784 61.2759 28.728C60.1111 29.3552 58.8343 29.6688 57.4455 29.6688ZM83.5703 29.6688C81.9799 29.6688 80.6135 29.3328 79.4711 28.6608C78.3287 27.9888 77.4551 26.9696 76.8503 25.6032C76.2455 24.2144 75.9431 22.4672 75.9431 20.3616C75.9431 18.2336 76.2567 16.4864 76.8839 15.12C77.5335 13.7536 78.4295 12.7344 79.5719 12.0624C80.7143 11.3904 82.0471 11.0544 83.5703 11.0544C85.2727 11.0544 86.7959 11.4352 88.1399 12.1968C89.5063 12.9584 90.5815 14.0336 91.3655 15.4224C92.1719 16.8112 92.5751 18.4576 92.5751 20.3616C92.5751 22.2432 92.1719 23.8784 91.3655 25.2672C90.5815 26.656 89.5063 27.7424 88.1399 28.5264C86.7959 29.288 85.2727 29.6688 83.5703 29.6688ZM72.8855 29.4V4.4688H78.1271V14.9856L77.7911 20.328L77.8919 25.704V29.4H72.8855ZM82.6631 25.368C83.5367 25.368 84.3095 25.1664 84.9815 24.7632C85.6759 24.36 86.2247 23.7888 86.6279 23.0496C87.0535 22.288 87.2663 21.392 87.2663 20.3616C87.2663 19.3088 87.0535 18.4128 86.6279 17.6736C86.2247 16.9344 85.6759 16.3632 84.9815 15.96C84.3095 15.5568 83.5367 15.3552 82.6631 15.3552C81.7895 15.3552 81.0055 15.5568 80.3111 15.96C79.6167 16.3632 79.0679 16.9344 78.6647 17.6736C78.2615 18.4128 78.0599 19.3088 78.0599 20.3616C78.0599 21.392 78.2615 22.288 78.6647 23.0496C79.0679 23.7888 79.6167 24.36 80.3111 24.7632C81.0055 25.1664 81.7895 25.368 82.6631 25.368Z" fill="#58BA5F"/>
<path d="M103.846 29.6688C102.143 29.6688 100.609 29.288 99.2423 28.5264C97.8759 27.7424 96.7895 26.656 95.9831 25.2672C95.1991 23.8784 94.8071 22.2432 94.8071 20.3616C94.8071 18.4576 95.1991 16.8112 95.9831 15.4224C96.7895 14.0336 97.8759 12.9584 99.2423 12.1968C100.609 11.4352 102.143 11.0544 103.846 11.0544C105.369 11.0544 106.702 11.3904 107.844 12.0624C108.986 12.7344 109.871 13.7536 110.498 15.12C111.126 16.4864 111.439 18.2336 111.439 20.3616C111.439 22.4672 111.137 24.2144 110.532 25.6032C109.927 26.9696 109.054 27.9888 107.911 28.6608C106.791 29.3328 105.436 29.6688 103.846 29.6688ZM104.753 25.368C105.604 25.368 106.377 25.1664 107.071 24.7632C107.766 24.36 108.314 23.7888 108.718 23.0496C109.143 22.288 109.356 21.392 109.356 20.3616C109.356 19.3088 109.143 18.4128 108.718 17.6736C108.314 16.9344 107.766 16.3632 107.071 15.96C106.377 15.5568 105.604 15.3552 104.753 15.3552C103.879 15.3552 103.095 15.5568 102.401 15.96C101.706 16.3632 101.146 16.9344 100.721 17.6736C100.318 18.4128 100.116 19.3088 100.116 20.3616C100.116 21.392 100.318 22.288 100.721 23.0496C101.146 23.7888 101.706 24.36 102.401 24.7632C103.095 25.1664 103.879 25.368 104.753 25.368ZM109.49 29.4V25.704L109.591 20.328L109.255 14.9856V4.4688H114.497V29.4H109.49ZM128.319 29.6688C126.258 29.6688 124.444 29.2656 122.876 28.4592C121.33 27.6528 120.132 26.5552 119.281 25.1664C118.43 23.7552 118.004 22.1536 118.004 20.3616C118.004 18.5472 118.418 16.9456 119.247 15.5568C120.098 14.1456 121.252 13.048 122.708 12.264C124.164 11.4576 125.81 11.0544 127.647 11.0544C129.417 11.0544 131.007 11.4352 132.418 12.1968C133.852 12.936 134.983 14.0112 135.812 15.4224C136.641 16.8112 137.055 18.48 137.055 20.4288C137.055 20.6304 137.044 20.8656 137.022 21.1344C136.999 21.3808 136.977 21.616 136.954 21.84H122.271V18.7824H134.199L132.183 19.6896C132.183 18.7488 131.993 17.9312 131.612 17.2368C131.231 16.5424 130.705 16.0048 130.033 15.624C129.361 15.2208 128.577 15.0192 127.681 15.0192C126.785 15.0192 125.99 15.2208 125.295 15.624C124.623 16.0048 124.097 16.5536 123.716 17.2704C123.335 17.9648 123.145 18.7936 123.145 19.7568V20.5632C123.145 21.5488 123.358 22.4224 123.783 23.184C124.231 23.9232 124.847 24.4944 125.631 24.8976C126.438 25.2784 127.378 25.4688 128.454 25.4688C129.417 25.4688 130.257 25.3232 130.974 25.032C131.713 24.7408 132.385 24.304 132.99 23.7216L135.778 26.7456C134.95 27.6864 133.908 28.4144 132.654 28.9296C131.399 29.4224 129.954 29.6688 128.319 29.6688ZM140.545 29.4V4.4688H145.786V29.4H140.545ZM150.651 29.4V11.3232H155.893V29.4H150.651ZM153.272 8.8032C152.309 8.8032 151.525 8.5232 150.92 7.9632C150.315 7.4032 150.013 6.7088 150.013 5.88C150.013 5.0512 150.315 4.3568 150.92 3.7968C151.525 3.2368 152.309 2.9568 153.272 2.9568C154.235 2.9568 155.019 3.2256 155.624 3.7632C156.229 4.2784 156.531 4.9504 156.531 5.7792C156.531 6.6528 156.229 7.3808 155.624 7.9632C155.042 8.5232 154.258 8.8032 153.272 8.8032ZM165.663 29.4L158.069 11.3232H163.479L169.796 26.88H167.108L173.66 11.3232H178.7L171.073 29.4H165.663ZM189.318 29.6688C187.257 29.6688 185.442 29.2656 183.874 28.4592C182.329 27.6528 181.13 26.5552 180.279 25.1664C179.428 23.7552 179.002 22.1536 179.002 20.3616C179.002 18.5472 179.417 16.9456 180.246 15.5568C181.097 14.1456 182.25 13.048 183.706 12.264C185.162 11.4576 186.809 11.0544 188.646 11.0544C190.415 11.0544 192.006 11.4352 193.417 12.1968C194.85 12.936 195.982 14.0112 196.81 15.4224C197.639 16.8112 198.054 18.48 198.054 20.4288C198.054 20.6304 198.042 20.8656 198.02 21.1344C197.998 21.3808 197.975 21.616 197.953 21.84H183.27V18.7824H195.198L193.182 19.6896C193.182 18.7488 192.991 17.9312 192.61 17.2368C192.23 16.5424 191.703 16.0048 191.031 15.624C190.359 15.2208 189.575 15.0192 188.679 15.0192C187.783 15.0192 186.988 15.2208 186.294 15.624C185.622 16.0048 185.095 16.5536 184.714 17.2704C184.334 17.9648 184.143 18.7936 184.143 19.7568V20.5632C184.143 21.5488 184.356 22.4224 184.782 23.184C185.23 23.9232 185.846 24.4944 186.63 24.8976C187.436 25.2784 188.377 25.4688 189.452 25.4688C190.415 25.4688 191.255 25.3232 191.972 25.032C192.711 24.7408 193.383 24.304 193.988 23.7216L196.777 26.7456C195.948 27.6864 194.906 28.4144 193.652 28.9296C192.398 29.4224 190.953 29.6688 189.318 29.6688ZM201.543 29.4V11.3232H206.55V16.4304L205.844 14.952C206.382 13.6752 207.244 12.712 208.431 12.0624C209.619 11.3904 211.063 11.0544 212.766 11.0544V15.8928C212.542 15.8704 212.34 15.8592 212.161 15.8592C211.982 15.8368 211.791 15.8256 211.59 15.8256C210.156 15.8256 208.991 16.24 208.095 17.0688C207.222 17.8752 206.785 19.1408 206.785 20.8656V29.4H201.543ZM218.791 36.1872C217.85 36.1872 216.92 36.0416 216.002 35.7504C215.083 35.4592 214.333 35.056 213.751 34.5408L215.666 30.8112C216.069 31.1696 216.528 31.4496 217.043 31.6512C217.581 31.8528 218.107 31.9536 218.623 31.9536C219.362 31.9536 219.944 31.7744 220.37 31.416C220.818 31.08 221.221 30.5088 221.579 29.7024L222.52 27.4848L222.923 26.9136L229.408 11.3232H234.448L226.283 30.5088C225.701 31.9648 225.029 33.1072 224.267 33.936C223.528 34.7648 222.699 35.3472 221.781 35.6832C220.885 36.0192 219.888 36.1872 218.791 36.1872ZM221.882 30.1056L213.818 11.3232H219.227L225.477 26.4432L221.882 30.1056Z" fill="black"/>
<mask id="mask0_3_8782" style="mask-type:alpha" maskUnits="userSpaceOnUse" x="2" y="0" width="34" height="36">
<path d="M3.78666 26.4061V9.37636C3.78666 8.89431 4.05831 8.45341 4.48887 8.23664L18.0621 1.40308C18.0621 1.40308 18.4608 1.1379 19.152 1.12904C19.6591 1.12254 20.0085 1.27311 20.1586 1.35375C20.2153 1.38419 20.2701 1.41761 20.3276 1.44654L33.8065 8.23657C34.2369 8.45339 34.5085 8.89421 34.5085 9.37615V26.3944C34.5085 26.8767 34.2366 27.3177 33.8057 27.5344L20.0293 34.4625C20.0293 34.4625 19.5242 34.6953 19.1343 34.6953C18.7444 34.6953 18.133 34.4625 18.133 34.4625L4.48572 27.5442C4.0569 27.3268 3.78666 26.8869 3.78666 26.4061Z" fill="white" stroke="#58BA5F" stroke-width="1.96719"/>
</mask>
<g mask="url(#mask0_3_8782)">
<path d="M19.3812 34.6953V17.54L19.904 17.3805L20.5243 17.1767L33.2756 10.6814L34.4009 10.0789L34.7199 9.83074V26.3214L34.6756 26.7822L34.5161 27.1544L34.3035 27.3936L20.1167 34.5712L19.6204 34.713L19.3812 34.6953Z" fill="#58BA5F"/>
<path d="M4.29065 10.008L4.03367 9.69782L3.99823 26.3303L4.11343 26.924L4.40585 27.3848L17.742 34.1459L18.5217 34.5446L19.3813 34.6687V17.5134L19.3724 17.4868L19.0889 17.4159L18.761 17.3185L18.3357 17.1412L5.18563 10.5751L4.58307 10.2827L4.29065 10.008Z" fill="#58BA5F"/>
<path d="M4.04244 9.09527L3.98927 9.60922L4.51208 10.2295L17.9545 16.9906L18.6989 17.3716L19.5318 17.4957L20.4977 17.159L34.0997 10.2738L34.6579 9.74214L34.7554 9.16616L34.5782 8.71424L34.0997 8.28004L20.4623 1.38602L19.9394 1.16449L19.1685 1.13791L18.5394 1.27082L5.48682 7.89014L4.7602 8.22687L4.21966 8.65221L4.04244 9.09527Z" fill="#58BA5F"/>
<path d="M29.9941 -0.0764351L7.51902 11.4372L12.6935 14.1371L35.3257 2.63551L29.9941 -0.0764351Z" fill="white" stroke="white" stroke-width="0.194947"/>
<path d="M13.4088 25.9579V14.2096L7.68443 11.266V23.1693L13.4088 25.9579Z" fill="white"/>
<path d="M3.78668 26.4061V9.37636C3.78668 8.89431 4.05833 8.45341 4.48889 8.23664L18.0621 1.40308C18.0621 1.40308 18.4608 1.1379 19.152 1.12904C19.6591 1.12254 20.0085 1.27311 20.1586 1.35376C20.2153 1.3842 20.2702 1.41761 20.3276 1.44655L33.8065 8.23657C34.2369 8.45339 34.5085 8.89422 34.5085 9.37616V26.3944C34.5085 26.8767 34.2366 27.3177 33.8058 27.5344L20.0293 34.4625C20.0293 34.4625 19.5242 34.6953 19.1343 34.6953C18.7444 34.6953 18.133 34.4625 18.133 34.4625L4.48573 27.5442C4.05691 27.3268 3.78668 26.8869 3.78668 26.4061Z" stroke="#58BA5F" stroke-width="1.96719"/>
<path d="M2.55379 9.02416L18.3622 17.1767L18.9784 17.3979C19.2506 17.4956 19.5481 17.4979 19.8218 17.4044L20.3957 17.2085C20.4577 17.1873 20.518 17.1614 20.5761 17.1309L36.0314 9.02416" stroke="white" stroke-width="2.10897"/>
</g>
</svg>
